<?xml version="1.0" standalone="no"?>
<!DOCTYPE svg PUBLIC "-//W3C//DTD SVG 20010904//EN"
 "http://www.w3.org/TR/2001/REC-SVG-20010904/DTD/svg10.dtd">
<svg version="1.0" xmlns="http://www.w3.org/2000/svg"
 width="237.000000pt" height="237.000000pt" viewBox="0 0 237.000000 237.000000"
 preserveAspectRatio="xMidYMid meet">
<metadata>
Created by potrace 1.14, written by Peter Selinger 2001-2017
</metadata>
<g transform="translate(0.000000,237.000000) scale(0.100000,-0.100000)"
fill="#000000" stroke="none">
<path d="M130 1265 l0 -255 95 0 95 0 0 35 0 35 -55 0 -55 0 0 70 0 70 35 0
c33 0 35 2 35 34 0 32 -3 35 -32 38 l-33 3 -3 77 -3 77 53 3 c52 3 53 4 56 36
l3 32 -95 0 -96 0 0 -255z"/>
<path d="M550 1485 c0 -34 1 -35 40 -35 l40 0 0 -220 0 -220 40 0 40 0 0 220
0 220 40 0 c39 0 40 1 40 35 l0 35 -120 0 -120 0 0 -35z"/>
<path d="M1066 1503 c-7 -27 -116 -482 -116 -488 0 -3 17 -5 39 -5 34 0 39 3
47 33 9 30 13 32 61 35 l52 3 7 -35 c6 -34 8 -36 45 -36 25 0 39 5 39 13 -1 6
-27 120 -59 252 -56 233 -58 240 -83 243 -18 2 -28 -2 -32 -15z m58 -325 c6
-27 5 -28 -29 -28 -30 0 -35 3 -31 18 3 9 11 40 17 67 l13 50 11 -40 c7 -22
15 -52 19 -67z"/>
<path d="M1470 1265 l0 -255 40 0 40 0 0 125 c0 69 3 125 8 125 4 -1 32 -56
62 -123 50 -109 58 -122 83 -125 l27 -3 0 255 0 256 -40 0 -39 0 -3 -132 -3
-133 -60 133 c-56 123 -62 132 -87 132 l-28 0 0 -255z"/>
<path d="M2067 1403 c-15 -65 -43 -180 -61 -256 l-34 -138 41 3 c37 3 42 6 51
36 9 32 10 33 59 30 48 -3 51 -5 59 -35 8 -30 12 -33 49 -33 34 0 39 3 35 18
-7 24 -116 480 -116 486 0 4 -12 6 -28 6 -27 0 -28 -2 -55 -117z m71 -184 c16
-69 16 -69 -18 -69 -16 0 -30 4 -30 9 0 22 24 111 30 111 4 0 12 -23 18 -51z"/>
<path d="M1055 874 c-18 -19 -16 -33 8 -48 18 -11 47 0 54 21 4 12 -23 43 -37
43 -5 0 -16 -7 -25 -16z m41 -15 c10 -17 -13 -36 -27 -22 -12 12 -4 33 11 33
5 0 12 -5 16 -11z"/>
<path d="M1173 883 c-18 -6 -16 -23 5 -40 16 -14 16 -14 0 -9 -10 3 -18 1 -18
-4 0 -14 37 -12 46 2 4 6 -1 17 -10 24 -16 12 -16 12 1 16 14 3 15 5 3 9 -8 3
-21 4 -27 2z"/>
<path d="M1693 873 c-4 -9 -1 -19 5 -21 7 -2 12 -8 12 -13 0 -6 -4 -7 -10 -4
-5 3 -10 1 -10 -4 0 -15 37 -14 46 1 4 6 -1 17 -11 25 -11 7 -13 13 -6 13 7 0
9 5 6 10 -9 15 -25 12 -32 -7z"/>
<path d="M630 850 c0 -28 3 -31 28 -28 21 2 27 8 27 28 0 20 -6 26 -28 28 -24
3 -27 0 -27 -28z m35 -10 c3 -5 1 -10 -4 -10 -6 0 -11 5 -11 10 0 6 2 10 4 10
3 0 8 -4 11 -10z"/>
<path d="M732 853 c2 -22 8 -28 28 -28 20 0 26 6 28 28 2 15 -1 27 -7 27 -6 0
-11 -12 -11 -26 0 -14 -4 -23 -10 -19 -5 3 -10 15 -10 26 0 10 -5 19 -11 19
-6 0 -9 -12 -7 -27z"/>
<path d="M840 850 c0 -26 3 -30 28 -29 19 1 21 3 8 6 -15 4 -16 7 -5 14 12 8
12 10 0 18 -11 7 -10 10 5 14 13 3 11 5 -8 6 -25 1 -28 -3 -28 -29z"/>
<path d="M941 848 c0 -25 2 -28 8 -15 6 17 8 17 20 3 20 -24 31 -19 31 14 0
17 -4 30 -10 30 -5 0 -10 -5 -10 -12 0 -9 -3 -9 -12 0 -20 20 -28 14 -27 -20z"/>
<path d="M1322 852 c-9 -27 -8 -28 23 -28 31 0 32 1 23 28 -6 15 -16 28 -23
28 -7 0 -17 -13 -23 -28z"/>
<path d="M1420 850 c0 -16 5 -30 10 -30 6 0 10 14 10 30 0 17 -4 30 -10 30 -5
0 -10 -13 -10 -30z"/>
<path d="M1490 851 c0 -17 5 -31 10 -31 6 0 10 6 10 13 0 8 3 7 10 -3 11 -18
17 -12 22 20 2 21 -2 26 -24 28 -25 3 -28 0 -28 -27z"/>
<path d="M1590 850 c0 -26 3 -30 28 -29 19 1 21 3 8 6 -15 4 -16 7 -5 14 12 8
12 10 0 18 -11 7 -10 10 5 14 13 3 11 5 -8 6 -25 1 -28 -3 -28 -29z"/>
</g>
</svg>
